<svg width="1024" height="1024" viewBox="0 0 1024 1024" fill="none" xmlns="http://www.w3.org/2000/svg">
<g clip-path="url(#clip0_341_24)">
<rect width="1024" height="1024" fill="#343432"/>
<path d="M635.13 438.6L618.33 398C615.33 390.6 613.53 384.2 606.33 383.2L602.33 382.6C601.13 381 601.33 378.2 602.93 377.6C607.93 378 614.93 378.2 621.73 378.2C627.13 378.2 631.13 378 637.93 377.6C639.33 378.4 639.53 381.6 638.13 382.6L635.73 383C629.53 384 629.33 385 631.33 391C635.93 404.8 641.73 418.8 646.33 429.2C648.13 433.2 648.93 435 649.53 435.6C650.33 435 651.73 432.2 653.33 428L664.73 398.6C667.53 391.6 668.33 387.4 668.33 386.2C668.33 384.4 667.13 383.6 664.73 383.2L660.13 382.6C658.93 381.2 659.13 378.4 660.53 377.6C666.73 378 671.73 378.2 675.53 378.2C680.53 378.2 683.93 378 689.53 377.6C690.93 378.4 691.13 381.4 689.93 382.6L686.93 383C679.93 384 678.13 389.2 672.33 400.4C669.53 405.8 657.13 434.8 653.93 443C651.93 448 649.93 452.6 647.33 459.4C646.93 460 646.13 460.2 645.33 460.2C644.33 460.2 643.33 460 642.73 459.4C641.13 453.8 638.13 446 635.13 438.6ZM746.086 405.8H709.086C703.886 405.8 703.686 406.2 703.686 411.2C703.686 431.4 715.486 448.6 736.886 448.6C743.486 448.6 749.086 446.6 755.286 438.8C757.286 438.2 758.686 439.4 758.886 441.2C752.286 454.8 737.886 459.8 727.486 459.8C714.486 459.8 704.286 454.2 698.486 446.6C692.486 438.8 690.086 429.4 690.086 420.6C690.086 396 706.286 375.4 730.286 375.4C747.486 375.4 758.686 387.2 758.686 399.2C758.686 402 758.286 403.6 757.886 404.4C757.286 405.6 754.486 405.8 746.086 405.8ZM707.286 399.8H721.486C736.286 399.8 740.686 399 742.286 397.8C742.886 397.4 743.486 396.6 743.486 394C743.486 388.4 739.686 381.4 728.086 381.4C716.286 381.4 706.086 392.2 705.886 398.8C705.886 399.2 705.886 399.8 707.286 399.8ZM777.983 434.6V399.6C777.983 391.8 777.983 390.8 772.583 387.2L770.783 386C769.983 385.2 769.983 383 770.983 382.4C775.583 380.8 786.183 375.6 791.183 372.6C792.183 372.8 792.783 373.2 792.783 374V385.6C792.783 386.6 792.983 387.2 793.383 387.4C800.383 381.6 807.983 375.4 815.383 375.4C820.383 375.4 824.383 378.6 824.383 383.4C824.383 390 818.983 392.6 815.783 392.6C813.783 392.6 812.783 392 811.383 391.2C808.383 389.2 805.383 388 802.583 388C799.383 388 796.983 389.8 795.383 392C793.383 394.8 792.783 400.6 792.783 407.4V434.6C792.783 449 793.183 451.4 800.783 452L807.983 452.6C809.383 453.6 808.983 457 807.583 457.6C798.183 457.2 792.383 457 785.383 457C778.183 457 772.183 457.2 766.983 457.6C765.583 457 765.183 453.6 766.583 452.6L770.383 452C777.783 450.8 777.983 449 777.983 434.6ZM837.905 506.8C832.105 506.8 829.105 503.2 829.105 498.2C829.105 492.8 832.705 490.2 837.105 490.2H840.905C844.105 490.2 846.105 488.8 847.505 486.6C853.305 477.6 857.305 469.2 859.105 464.4C859.705 462.8 861.105 458.6 861.105 455.8C861.105 451.8 860.305 449.4 857.705 442L842.105 399.2C838.705 389.8 837.305 385 830.305 383.6L825.305 382.6C824.105 381.6 824.305 378.2 825.905 377.6C832.305 378 838.305 378.2 844.905 378.2C850.305 378.2 855.905 378 862.305 377.6C863.905 378.2 864.105 381.6 862.705 382.6L857.705 383.6C854.905 384.2 853.305 384.8 853.305 386.2C853.305 388.6 857.905 401.6 859.105 405L865.505 423.4C866.705 426.6 870.505 437.2 871.305 437.6C871.905 437.2 875.105 431 878.705 422.8L885.505 407C889.905 396.6 892.505 389.2 892.505 387C892.505 385.6 891.305 384.2 887.705 383.6L881.505 382.6C880.105 381.6 880.305 378.2 881.905 377.6C888.305 378 894.305 378.2 899.505 378.2C904.505 378.2 909.105 378 914.705 377.6C916.305 378.4 916.505 381.4 915.105 382.6L911.705 383.2C905.105 384.4 901.505 390.2 894.705 404.4L883.505 427.4C876.905 440.8 860.505 475.6 850.705 497.4C847.305 505 842.505 506.8 837.905 506.8ZM627.78 634.6V599.6C627.78 591.8 627.78 590.8 622.38 587.2L620.58 586C619.78 585.2 619.78 583 620.78 582.4C625.38 580.8 636.78 575.6 640.78 572.6C641.58 572.6 642.58 573 642.98 574C642.58 578.6 642.58 581.6 642.58 583.4C642.58 584.6 643.38 585.6 644.78 585.6C653.18 580.4 662.58 575.4 672.78 575.4C689.38 575.4 696.18 586.8 696.18 600.2V634.6C696.18 649 696.58 651 703.78 652L708.18 652.6C709.58 653.6 709.18 657 707.78 657.6C701.78 657.2 695.98 657 688.98 657C681.78 657 675.78 657.2 670.38 657.6C668.98 657 668.58 653.6 669.98 652.6L673.78 652C681.18 650.8 681.38 649 681.38 634.6V604.8C681.38 593.4 676.18 585 662.58 585C654.98 585 648.38 588.2 645.58 592C642.98 595.4 642.58 598.2 642.58 604V634.6C642.58 649 642.98 650.8 650.18 652L653.78 652.6C655.18 653.6 654.78 657 653.38 657.6C647.98 657.2 642.18 657 635.18 657C627.98 657 621.98 657.2 616.38 657.6C614.98 657 614.58 653.6 615.98 652.6L620.18 652C627.58 651 627.78 649 627.78 634.6ZM728.858 634.6V599.6C728.858 591.8 728.858 590.8 723.458 587.2L721.658 586C720.858 585.2 720.858 583 721.858 582.4C726.458 580.8 737.858 575.6 742.458 572.6C743.458 572.6 744.258 573 744.458 573.8C744.058 580.8 743.658 590.4 743.658 598.6V634.6C743.658 649 744.058 651 751.258 652L755.458 652.6C756.858 653.6 756.458 657 755.058 657.6C749.058 657.2 743.258 657 736.258 657C729.058 657 723.058 657.2 717.458 657.6C716.058 657 715.658 653.6 717.058 652.6L721.258 652C728.658 651 728.858 649 728.858 634.6ZM735.458 532.2C741.458 532.2 745.458 537 745.458 542.6C745.458 549.8 740.458 553 734.858 553C728.658 553 724.658 548.4 724.658 543C724.658 536.4 729.458 532.2 735.458 532.2ZM812.225 575.4C816.825 575.4 824.625 576.4 830.025 578.8C831.625 580.2 833.025 583.4 833.025 586.8C833.025 590.4 831.025 594.2 828.625 594.2C827.625 594.2 826.625 593.8 825.825 592.8C821.425 587.4 814.025 582.2 805.825 582.2C791.825 582.2 778.225 593.2 778.225 614.4C778.225 630 789.025 648.6 810.425 648.6C822.025 648.6 828.025 643.4 832.625 636.6C834.225 636.2 836.025 637.6 836.225 639.4C829.425 654.2 814.425 659.8 802.825 659.8C792.225 659.8 782.425 656.4 775.425 649.6C768.425 642.8 763.825 633 763.825 620C763.825 598.4 779.025 575.4 812.225 575.4ZM895.703 605.8H858.703C853.503 605.8 853.303 606.2 853.303 611.2C853.303 631.4 865.103 648.6 886.503 648.6C893.103 648.6 898.703 646.6 904.903 638.8C906.903 638.2 908.303 639.4 908.503 641.2C901.903 654.8 887.503 659.8 877.103 659.8C864.103 659.8 853.903 654.2 848.103 646.6C842.103 638.8 839.703 629.4 839.703 620.6C839.703 596 855.903 575.4 879.903 575.4C897.103 575.4 908.303 587.2 908.303 599.2C908.303 602 907.903 603.6 907.503 604.4C906.903 605.6 904.103 605.8 895.703 605.8ZM856.903 599.8H871.103C885.903 599.8 890.303 599 891.903 597.8C892.503 597.4 893.103 596.6 893.103 594C893.103 588.4 889.303 581.4 877.703 581.4C865.903 581.4 855.703 592.2 855.503 598.8C855.503 599.2 855.503 599.8 856.903 599.8ZM599.358 824.2L623.158 815.6C626.158 814.6 626.558 812.8 626.558 809.8L626.758 800.6C626.958 793.2 624.558 783.2 612.158 783.2C606.558 783.2 599.758 786 599.358 792.2C599.158 795.4 598.958 797.8 597.358 799C594.358 801.4 588.958 802.8 585.958 802.8C584.158 802.8 583.158 801.8 583.158 800C583.158 789.6 605.758 775.4 620.358 775.4C634.758 775.4 641.758 783.8 641.158 798.8L639.958 833.6C639.558 842.8 641.358 851 649.158 851C651.158 851 652.958 850.4 654.158 849.8C655.158 849.2 656.158 848.4 656.758 848.4C657.558 848.4 658.158 849.6 658.158 851C658.158 852 651.158 859.8 641.358 859.8C636.558 859.8 631.758 858 628.358 853.6C627.558 852.4 626.358 850.8 625.158 850.8C623.758 850.8 621.358 852.6 617.358 854.8C612.958 857.2 608.558 859.8 602.958 859.8C597.158 859.8 592.358 858.2 588.958 855.2C585.158 851.8 582.758 846.8 582.758 841.2C582.758 833.4 586.558 828.8 599.358 824.2ZM598.158 838.8C598.158 842.2 600.558 850.8 610.758 850.8C614.758 850.8 620.958 847.8 622.958 845.8C625.358 843.4 625.358 840.6 625.558 836.4L625.958 824.6C625.958 822.4 625.158 822 623.958 822C622.758 822 619.358 822.8 615.758 824C603.958 828 598.158 831 598.158 838.8ZM669.617 885.6V799.6C669.617 791.8 669.617 790.8 664.217 787.2L662.417 786C661.617 785.2 661.617 783 662.617 782.4C667.817 780.2 677.217 775.4 682.417 771.6C683.617 771.6 684.417 772 684.817 773C684.417 776.6 684.017 779.6 684.017 782.2C684.017 783.6 684.417 784.8 685.817 784.8C688.417 783.6 701.017 775.4 713.817 775.4C734.017 775.4 747.017 791.8 747.017 812C747.017 839.8 726.617 859.8 698.217 859.8C694.617 859.8 689.017 859.4 687.217 859C685.417 859.4 684.417 860.4 684.417 864.6V885.6C684.417 899.8 684.817 901.6 692.017 902.6L699.817 903.6C701.217 904.6 700.817 908 699.417 908.6C689.817 908.2 684.017 908 677.017 908C669.817 908 663.817 908.2 658.217 908.6C656.817 908 656.417 904.6 657.817 903.6L662.017 903C669.417 902 669.617 900 669.617 885.6ZM684.417 802.4V836.8C684.417 843.2 686.417 845.6 690.417 848.8C694.417 851.8 700.617 853.2 704.817 853.2C721.217 853.2 730.817 838 730.817 817.2C730.817 801.2 721.817 785 703.817 785C695.217 785 689.017 788.2 686.817 790.6C685.017 792.8 684.417 795.8 684.417 802.4ZM766.984 885.6V799.6C766.984 791.8 766.984 790.8 761.584 787.2L759.784 786C758.984 785.2 758.984 783 759.984 782.4C765.184 780.2 774.584 775.4 779.784 771.6C780.984 771.6 781.784 772 782.184 773C781.784 776.6 781.384 779.6 781.384 782.2C781.384 783.6 781.784 784.8 783.184 784.8C785.784 783.6 798.384 775.4 811.184 775.4C831.384 775.4 844.384 791.8 844.384 812C844.384 839.8 823.984 859.8 795.584 859.8C791.984 859.8 786.384 859.4 784.584 859C782.784 859.4 781.784 860.4 781.784 864.6V885.6C781.784 899.8 782.184 901.6 789.384 902.6L797.184 903.6C798.584 904.6 798.184 908 796.784 908.6C787.184 908.2 781.384 908 774.384 908C767.184 908 761.184 908.2 755.584 908.6C754.184 908 753.784 904.6 755.184 903.6L759.384 903C766.784 902 766.984 900 766.984 885.6ZM781.784 802.4V836.8C781.784 843.2 783.784 845.6 787.784 848.8C791.784 851.8 797.984 853.2 802.184 853.2C818.584 853.2 828.184 838 828.184 817.2C828.184 801.2 819.184 785 801.184 785C792.584 785 786.384 788.2 784.184 790.6C782.384 792.8 781.784 795.8 781.784 802.4ZM884.552 775.4C892.952 775.4 900.352 777.4 902.152 779C903.952 783.4 905.352 789.8 905.352 795.2C904.552 796.6 901.552 797 900.552 795.8C897.152 787 891.152 781.2 882.952 781.2C875.152 781.2 870.152 786.2 870.152 793.4C870.152 801.6 878.552 806 885.552 810C896.152 816 905.952 822.8 905.952 837C905.952 852.2 891.952 859.8 877.152 859.8C867.752 859.8 860.752 857.8 855.752 853.8C854.152 850 852.952 840.2 853.352 833.6C854.352 832.4 856.952 832.2 857.952 833.4C861.352 844.4 867.752 854 879.152 854C886.352 854 892.552 849.8 892.552 841.2C892.552 832 884.552 827 877.152 822.8C865.552 816.2 857.352 809.2 857.352 798.2C857.352 783.6 869.352 775.4 884.552 775.4Z" fill="#FCFCF9"/>
</g>
<rect x="3.5" y="3.5" width="1017" height="1017" rx="224.5" stroke="#FF0000" stroke-width="7"/>
<defs>
<clipPath id="clip0_341_24">
<rect width="1024" height="1024" rx="228" fill="white"/>
</clipPath>
</defs>
</svg>
